<svg xmlns="http://www.w3.org/2000/svg" width="1653" height="811" viewBox="0 0 1653 811">
  <defs>
    <style>
      .cls-1 {
        fill: #0554f2;
        fill-rule: evenodd;
        opacity: 0.3;
      }
    </style>
  </defs>
  <path class="cls-1" d="M735.554,625.552c1.734,0,3.462-.037,5.187-0.1q-8.643,2.7-17.478,5.5c-57.857,18.286-117.331,37.084-181.51,37.084a312.73,312.73,0,0,1-44.492-3.133c-0.4-.059-0.806-0.1-1.21-0.158a321.959,321.959,0,0,0,33.1,1.719c59.439,0,114.884-15.723,168.793-31.011,11.751-3.332,23.674-6.7,35.672-9.924q0.972,0.017,1.94.016m-219.691,37.26c54.707,0,106.1-13.21,156.045-26.05,15.986-4.107,32.241-8.275,48.705-12.051,1.814,0.205,3.622.36,5.426,0.49-9.809,2.684-19.557,5.44-29.187,8.17-53.638,15.21-108.8,30.86-167.731,30.86a315.407,315.407,0,0,1-36.776-2.115q-3.033-.354-6.054-0.631l0.769,0.061c9.712,0.868,19.305,1.266,28.8,1.266m25.949,7.46c64.743,0,124.49-18.878,182.646-37.257,8.992-2.842,17.762-5.592,26.464-8.27,3.395-.363,6.772-0.866,10.136-1.46-3.62,1.281-7.255,2.569-10.954,3.883-62.258,22.1-126.236,44.791-196.208,44.791a311.43,311.43,0,0,1-48.1-3.7,319.827,319.827,0,0,0,36.017,2.01m-39.4-10.907c49.9,0,95.8-10.843,144.053-22.242,20.814-4.918,42.021-9.922,63.778-14.023,1.348,0.258,2.7.53,4.04,0.746-14.645,3.441-29.117,7.14-43.37,10.8-49.693,12.775-100.851,25.925-155.072,25.925-9.379,0-18.838-.392-28.409-1.248-6.2-.554-12.358-0.869-18.5-1.054,4.433,0.086,8.867.224,13.33,0.492q10.2,0.612,20.152.6m230.383-35.989c-1.692-.045-3.391-0.133-5.093-0.245l0.539-.118c1.572,0.139,3.136.238,4.7,0.325l-0.145.038m-12.482-.941c-1.213-.15-2.431-0.33-3.649-0.513l1.2-.218c1.14,0.186,2.275.349,3.409,0.506-0.321.073-.639,0.151-0.961,0.225M487.363,656.128c46.653,0,89.341-9.441,134.361-19.4,25.836-5.713,52.218-11.536,79.826-15.549,1,0.258,1.99.464,2.985,0.7-20.1,3.926-39.715,8.557-59,13.112-48.017,11.346-93.69,22.138-143.146,22.138q-9.837,0-19.883-.593c-7.48-.45-15.026-0.6-22.564-0.6-1.518,0-3.03.027-4.547,0.038,3.906-.079,7.786-0.13,11.663-0.13,3.463,0,6.924.041,10.4,0.14q4.98,0.145,9.9.144m240.658-35.4c-0.916-.084-1.836-0.183-2.757-0.285l0.241-.041c0.891,0.114,1.775.2,2.663,0.295l-0.147.031m-17.822.07c-0.789-.158-1.577-0.315-2.37-0.487,0.509-.068,1.016-0.138,1.525-0.205,0.42,0.089.83,0.166,1.252,0.256,0.315,0.068.628,0.116,0.943,0.181-0.451.083-.9,0.171-1.35,0.255M446.335,653.953c8.944-.391,17.583-0.721,26.328-0.755,43.683-.171,83.276-8.559,125.192-17.44,30.7-6.5,62.089-13.137,95.889-16.516,0.678,0.162,1.372.343,2.053,0.51-25.858,3.986-50.64,9.459-74.945,14.834-44.755,9.9-87.187,19.307-133.375,19.307q-4.923,0-9.9-.147-5.334-.153-10.716-0.145c-6.855,0-13.73.157-20.525,0.352m271.458-34.541c-0.388-.064-0.777-0.142-1.165-0.211l0.55-.064c0.38,0.061.756,0.119,1.138,0.182l-0.523.093m-16.054-.546c-0.359-.092-0.71-0.174-1.068-0.264l0.867-.072c0.368,0.07.727,0.131,1.1,0.2-0.3.042-.6,0.09-0.9,0.133M437.35,652.107c2.017-.124,4.067-0.232,6.072-0.358,8.413-.526,16.362-1.025,24.45-1.339,37.24-1.448,71.186-8.528,107.129-16.025,35.035-7.3,70.943-14.762,110.98-16.916,0.323,0.071.652,0.15,0.976,0.221-31.567,3.557-61.061,9.8-89.94,15.917-41.709,8.838-81.107,17.183-124.372,17.354-10.653.041-21.082,0.511-32.121,1.007-1.053.048-2.118,0.091-3.174,0.139m-6.29-1.878c5.547-.42,11.048-0.866,16.408-1.325,5.239-.446,10.44-0.888,15.62-1.284,31.25-2.383,59.894-8.438,90.213-14.85,38.113-8.058,77.2-16.28,122.474-16.886-36.322,2.768-69.327,9.618-101.6,16.349-35.773,7.46-69.564,14.506-106.463,15.944-8.135.315-16.477,0.837-24.546,1.342-4,.25-8.056.479-12.105,0.71m-7.175-1.73c10.5-.907,20.751-2.082,30.7-3.24l3.719-.432c25.747-2.988,50.561-8.469,74.557-13.767,37.975-8.386,76.868-16.968,122.948-16.969,1.6,0,3.2.011,4.821,0.031-39.313,1.981-74.13,9.3-108.165,16.5-30.19,6.383-58.7,12.412-89.692,14.774-5.189.394-10.4,0.84-15.657,1.288-7.555.646-15.36,1.293-23.232,1.817m-6.573-1.706c13.716-1.322,26.462-3.218,36.213-4.764,20.745-3.291,40.835-8.052,60.263-12.657,36.631-8.682,74.1-17.55,119.128-17.551q5.728,0,11.62.2c-41.587,1.241-77.454,9.148-112.546,16.9-25,5.522-48.613,10.737-74.159,13.7l-3.719.433c-11.774,1.372-23.949,2.79-36.455,3.723l-0.345.022m135.656,27.293c71.888,0,138.417-23.59,198.452-44.9,17.342-6.156,33.722-11.97,50.134-17.255,0.77-.248,1.549-0.51,2.32-0.76-8.636,3.381-17.34,6.87-26.464,10.533-64.053,25.717-134.995,54.179-212.791,54.179a305.461,305.461,0,0,1-51.08-4.248,313.209,313.209,0,0,0,39.429,2.455m-140.946-29.1c30.34-3.218,57.676-10.3,84.107-17.183,35.486-9.235,71.751-18.653,116.1-18.654q8.19,0,16.753.445c-43.672.5-80.29,9.155-116.119,17.647-19.358,4.586-39.374,9.33-59.973,12.6-10.452,1.658-24.348,3.727-39.169,5.039-0.564.049-1.13,0.064-1.694,0.108M564.666,678.12c78.482,0,149.794-28.6,214.2-54.454,11-4.418,21.393-8.589,31.781-12.61l6.037-2.336c1.107-.43,2.227-0.862,3.338-1.292-0.626.283-1.26,0.561-1.887,0.846q-6.312,2.871-12.772,5.832c-65.427,29.931-143.8,65.776-230.409,65.776a300.475,300.475,0,0,1-53.62-4.761,311.325,311.325,0,0,0,43.336,3M343.6,659.879c-40.52,0-71.684-2.744-87.705-14.847-9.1-6.877-17.419-14.779-16.643-25.939a29.854,29.854,0,0,1,3.936-12.042,26.234,26.234,0,0,0-1.049,3.793c-2.264,11.837,5.547,20.81,12.607,27.3,19.112,17.583,64.374,21.172,120.96,21.172q3.726,0,7.517-.021c-13.97.324-27.236,0.581-39.623,0.581m31.814-2.792c-55.624,0-99.983-3.489-118.3-20.34-10.05-9.247-13.63-16.9-11.967-25.591a25.313,25.313,0,0,1,1.642-5.177c-1.27,7.777,1.638,15.4,8.988,23.713,17.945,20.286,67.185,26.387,119.64,27.395M575,682.146c87.38,0,166.174-36.043,231.962-66.138q6.459-2.955,12.767-5.829,7.67-3.487,15.466-6.89c-2.729,1.384-5.453,2.772-8.152,4.19-60.241,31.658-145.517,76.462-241.874,76.462a298,298,0,0,1-55.613-5.17A306.174,306.174,0,0,0,575,682.146M369,654.564c-61.039-1.818-96.744-10.333-110.685-26.1-8-9.05-10.4-16.845-7.793-25.252-0.222,5.832,1.826,11.716,6.293,18.015,13.255,18.686,53.722,30.385,112.185,33.333m2.6-2.1c-58.637-2.653-99.127-14-112.09-32.272-4.782-6.742-6.678-12.956-5.776-19.142a36.136,36.136,0,0,0,4.143,11.715c13.4,24.1,61.79,36.386,113.723,39.7M585.236,686.2c97.228-.007,182.978-45.061,243.565-76.9q10.236-5.38,20.776-10.435c-4.583,2.534-9.13,5.126-13.622,7.819-69.566,41.688-150.373,81.508-240.024,81.508a296.922,296.922,0,0,1-57.964-5.687,303.584,303.584,0,0,0,47.269,3.7M316.808,663.868c-27.415,0-48.941-2.319-62.134-10.541-12.737-7.937-21.326-15.459-21.844-26.367-0.394-8.354,4.25-18.48,14.184-30.663-6.8,8.478-10.324,15.969-10.791,22.68-0.841,12.051,8.375,20.725,17.5,27.62,16.773,12.671,48.692,15.515,90.017,15.515,14.091,0,29.268-.33,45.322-0.714-6.141.254-12.129,0.518-17.911,0.775-19.835.883-38.123,1.7-54.346,1.7m279.164,26.59c90.508,0,171.873-40.073,241.9-82.039q12.451-7.461,25.393-14.109c-6.237,3.674-12.371,7.513-18.385,11.579-85.46,57.8-164.639,86.413-239.938,86.413a292.011,292.011,0,0,1-59.3-6.059,301.3,301.3,0,0,0,50.33,4.215m-236.648-41.04c-50.409-4.7-87.953-18.282-98.639-37.5a32.955,32.955,0,0,1-4.292-18.371,33.157,33.157,0,0,0,2.555,10.759c9.443,22.414,49.409,39.3,100.376,45.109m-11.616-4.006c-43.783-6.9-77.661-22.3-85.862-41.767A31.252,31.252,0,0,1,259.4,593.03c0.193,0.94.352,1.882,0.636,2.82,6.866,22.771,42.544,41.454,87.675,49.562m8.017-.947c-47.453-7.1-85.73-25.887-92.729-49.1a29.6,29.6,0,0,1-.972-4.537c7.82,24.627,47.165,45.667,93.7,53.636m249.263,50.086c76.042,0,155.88-28.808,241.94-87.014,9.251-6.256,18.768-12.016,28.576-17.364-7.406,4.631-14.639,9.58-21.7,14.924-59.1,44.736-143.683,91.3-239.581,91.3a290.816,290.816,0,0,1-59.706-6.166,296,296,0,0,0,50.468,4.316M249.879,592.887c1.324-1.525,2.745-3.087,4.225-4.672l-0.024.125q-2.244,2.317-4.2,4.547m91.55,46.378c-40.687-9.755-72.9-29.629-77.295-52.183l-0.02-.173c2.256,6.307,6.418,12.625,12.511,18.767,14.772,14.891,38.441,26.681,64.8,33.589M614.277,698.65c96.876,0,182.137-46.9,241.7-91.993A294.086,294.086,0,0,1,887.5,585.888,259.4,259.4,0,0,0,862.745,604.3c-30.371,25.552-79.455,60.219-140.824,80.262-32.879,10.736-65.61,16.1-97.935,16.1a290.607,290.607,0,0,1-61.288-6.531,295.034,295.034,0,0,0,51.579,4.523m9.638,4.273c32.764,0,65.921-5.434,99.235-16.315C785.023,666.4,834.455,631.5,865.027,605.774a257.262,257.262,0,0,1,34.514-24.452,233.833,233.833,0,0,0-27.852,22.183c-29.043,27-77.067,63.677-140.937,85.038-32.662,10.921-65.287,16.369-97.628,16.369a288.583,288.583,0,0,1-62.211-6.8,293.932,293.932,0,0,0,53,4.811m9.159,4.248c32.783,0,65.834-5.523,98.932-16.591,64.424-21.545,112.812-58.487,142.059-85.685a230.64,230.64,0,0,1,36.694-27.855,214.969,214.969,0,0,0-30.117,25.667c-55.272,56.522-141.39,106.334-239.129,106.334A287.085,287.085,0,0,1,577.9,701.9a291.871,291.871,0,0,0,55.179,5.271M298.425,669.027c-18.884,0-34.195-1.843-44.98-7.4-12.835-6.605-25.54-14.119-27.571-26.8-2.222-13.872,8.512-33.039,33.282-58.856a43.277,43.277,0,0,0-3.178,6.27c-18.375,18.5-26.736,33.043-26.179,44.792,0.556,11.73,9.563,19.675,22.916,28C266.592,663.685,288.78,666.1,316.9,666.1c16.306,0,34.606-.813,54.437-1.7,7.381-.327,15.11-0.667,23.054-0.98-13.454.764-26.373,1.7-38.556,2.6-21.462,1.578-40.814,3-57.407,3m343.15,42.256c98.816,0,185.754-50.225,241.527-107.268A210.733,210.733,0,0,1,922,572.636a200.441,200.441,0,0,0-32.4,29.272C838.429,659.223,751.545,713.3,650.32,713.3a285.783,285.783,0,0,1-64.8-7.468,290.828,290.828,0,0,0,56.055,5.455m8.809,4.273c102.355,0,190.1-54.555,241.748-112.415a195.656,195.656,0,0,1,40.44-34.66,189.236,189.236,0,0,0-34.016,32.627c-36.463,44.591-86.7,79.9-141.45,99.42a287.21,287.21,0,0,1-162.862,9.51,289.033,289.033,0,0,0,56.14,5.518m9.224,4.262a293.477,293.477,0,0,0,98.821-17.275c55.273-19.708,105.96-55.321,142.723-100.281A183.8,183.8,0,0,1,943.3,564.171a180.1,180.1,0,0,0-35.786,36.136c-34.65,46.112-86.283,84.105-141.663,104.236a284.725,284.725,0,0,1-97.574,17.346,287.614,287.614,0,0,1-67.317-8.052,291.747,291.747,0,0,0,58.644,5.981m8.68,4.319a288.57,288.57,0,0,0,98.91-17.588c55.921-20.327,108.032-58.656,142.975-105.159a174.348,174.348,0,0,1,43.309-41.274,173.058,173.058,0,0,0-37,39.384c-40.843,59.013-107.434,103.817-178.135,119.85a278.676,278.676,0,0,1-61.774,6.973,283.276,283.276,0,0,1-69.245-8.695,290.563,290.563,0,0,0,60.956,6.509m8.361,4.419a282.238,282.238,0,0,0,62.594-7.068c71.468-16.207,138.737-61.43,179.945-120.97,13.166-19.021,27.972-33.459,44.473-44.532-14.1,10.984-26.835,24.915-38.2,42.71-39.176,61.311-105.592,107.955-177.668,124.765a275.759,275.759,0,0,1-62.8,7.287,281.62,281.62,0,0,1-70.7-9.14,286.05,286.05,0,0,0,62.353,6.948m8.382,4.424a279.636,279.636,0,0,0,63.671-7.386c72.871-17,139.971-64.078,179.5-125.946,13.214-20.681,28.332-36.056,45.361-47.612-14.616,11.547-27.669,26.452-39.132,45.851C896.912,661.38,830.763,709.794,757.483,727.4a273.085,273.085,0,0,1-63.938,7.624,281.208,281.208,0,0,1-66.7-8.141,283.2,283.2,0,0,0,58.185,6.1M265.3,573.313l0.041-.3a49.8,49.8,0,0,1,3.45-4.683c0.807-.969,1.7-1.961,2.661-2.962a106.184,106.184,0,0,1,21.25-15.186q-15.765,12.438-27.4,23.132m428.86,163.779a274.912,274.912,0,0,0,64.263-7.566c74.092-17.8,140.928-66.675,178.788-130.745,12.742-21.562,27.5-37.5,44.258-49.375l0.409-.122c-14.5,11.927-27.341,27.453-38.474,47.793C907.436,662.8,841.5,713,767.017,731.368a268.525,268.525,0,0,1-64.405,7.776,288.445,288.445,0,0,1-68.827-8.47,290.569,290.569,0,0,0,60.374,6.418M274.516,554.185c5.226-5.833,12.3-11.025,20.842-15.624q-2.249,1.941-4.431,3.846a89.866,89.866,0,0,0-16.411,11.778m-9.256,23.607c-0.016-.232-0.028-0.465-0.037-0.7a513.433,513.433,0,0,1,39.737-33.148c4.663-2.158,9.772-4.306,15.368-6.43-23.452,15.246-41.667,28.551-55.068,40.275m26.791-32.9,1.03-.9a158.854,158.854,0,0,1,20.463-9.7l-1.4,1.041a174.247,174.247,0,0,0-20.091,9.559m0.688,14.6q16.394-11.927,38.034-25.71,6-2.022,12.643-4c-19.522,10.593-36.011,20.263-49.668,29.149-0.334.187-.678,0.375-1.009,0.561m17.731-30.317,0.586-.489c0.321-.02.637-0.073,0.957-0.1-0.515.2-1.036,0.393-1.543,0.592m-9.5,8q1.832-1.563,3.7-3.146a199.49,199.49,0,0,1,19.17-7.264c-1.158.837-2.322,1.675-3.457,2.5a203.163,203.163,0,0,0-19.417,7.909m27.477-10.6,0.608-.44c0.39-.021.774-0.077,1.162-0.109-0.59.183-1.19,0.365-1.77,0.549m-7.385,5.357c0.394-.289.779-0.573,1.176-0.862q7.485-2.618,16.3-5.133c-0.33.206-.647,0.407-0.977,0.612q-8.91,2.637-16.5,5.383m4.7,10.5Q338.9,534.9,354.3,526.708q4.893-1.311,10.124-2.587-21.391,9.628-38.654,18.308m20.449-18.323,0.741-.458,0.351-.088c0.458-.024.911-0.081,1.368-0.12-0.839.221-1.638,0.445-2.46,0.666m14.044,4.531q7.915-3.615,16.442-7.369c2.218-.489,4.455-0.974,6.755-1.454q-12.194,4.5-23.2,8.823m-13.532-7.293q1.839-.867,3.678-1.862c5.474-1.266,11.077-2.437,16.768-3.524q-1.69.771-3.38,1.444-8.958,1.9-16.9,3.929l-0.166.013m27.1-5.976c0.591-.312,1.184-0.622,1.776-0.948q7.777-1.353,15.677-2.517c-0.492.22-.983,0.441-1.475,0.651q-8.339,1.356-15.978,2.814m24.5-4.139c0.305-.153.608-0.294,0.913-0.45q7.287-.986,14.567-1.832l-0.577.227c-5.13.659-10.115,1.341-14.9,2.055m23.483-3.11,0.162-.074c1.272-.134,2.536-0.258,3.8-0.386-1.335.151-2.652,0.305-3.965,0.46m446.57,70.025c10.181-6.034,20.515-12.388,31.082-18.89,56.515-34.766,119.267-73.347,197.337-82.945-75.41,12.854-136.689,48.6-192.121,80.972-12.386,7.232-24.447,14.272-36.3,20.863m-13.531,5.028c12.361-7.519,24.762-15.546,37.3-23.671,54.345-35.209,114.668-74.256,189.278-83.235-71.91,12.408-130.7,48.534-183.911,81.27-14.6,8.985-28.76,17.689-42.669,25.636m26.785-9.686c8.186-4.676,16.482-9.518,24.928-14.451,58.838-34.356,124.3-72.542,206.107-82.777-79.27,13.358-143.285,48.781-201.113,80.813-10.174,5.635-20.129,11.151-29.922,16.415m14.122-4.9q8.712-4.779,17.623-9.729c61.186-33.894,129.32-71.612,215.03-82.664-83.31,14.027-150.094,49.093-210.362,80.745q-11.319,5.944-22.291,11.648m15.238-5.2q4.383-2.3,8.813-4.625c63.782-33.5,134.912-70.817,225.092-82.734-87.99,14.789-157.925,49.559-220.926,80.91Q917.423,560.2,911,563.389m16.551-5.528c66.295-32.984,140.354-69.516,235-82.234-93.7,15.672-167.295,50.334-233.484,81.518l-1.52.716m18.117-5.867c65.957-30.922,139.967-63.557,233.837-76.672-93.7,15.878-167.64,47.253-233.837,76.672m19.666-6.075c65.631-28.73,139.581-57.813,232.751-71.223-93.05,15.919-166.96,43.9-232.751,71.223m21.733-6.355c64.908-26.257,138.358-51.908,230.078-65.625-69.49,12.11-128.52,29.238-181.31,47.69a171.973,171.973,0,0,0-19.91,7.042c-1.2.44-2.38,0.918-3.57,1.381q-12.87,4.734-25.288,9.512M1058.42,516.4a1102.923,1102.923,0,0,1,180.3-43.733,1408.827,1408.827,0,0,0-174.19,42.714c-2.05.322-4.09,0.657-6.11,1.019m20.15-2.905a1398.367,1398.367,0,0,1,180.28-41.972c-66.63,12.333-124.78,26.645-176.51,41.563-1.27.129-2.52,0.266-3.77,0.409m15.96-1.485a1859.394,1859.394,0,0,1,187.64-42.351c-70.35,13.547-131.26,27.734-185.26,42.188-0.79.054-1.59,0.105-2.38,0.163m13.96-.853c57.65-15.141,123.1-29.963,199.31-44.027l0.07-.014c-74.76,15.165-139.79,29.578-197.52,43.944-0.63.03-1.24,0.067-1.86,0.1m-715.6,132.653c-43.6,0-90.27-15.724-113.816-39.458-7.041-7.1-11.4-14.427-13.09-21.669,2.364-2.065,4.909-4.176,7.68-6.346,10.831-8.23,25.424-17.165,43.953-26.924,21.266-10.044,48.076-20.822,80.741-32.515,2.292-.422,4.636-0.839,7-1.252a115.428,115.428,0,0,0,17.58-2.931c4.6-.651,9.275-1.29,14.134-1.9,4.758-.6,9.429-1.344,14.062-2.151,1.323-.131,2.606-0.269,3.948-0.4,8.567-.817,16.853-1.873,24.96-3.063q16.944-1.255,32.57-2.935c228.466-10.01,263.975-28.885,332.667-65.417,32.563-17.316,73.087-38.867,145.537-65.4,41.772-15.3,77.352-20.726,106.792-20.726,56.29,0,90.17,19.82,102.17,28.4,27.82,19.9,38.2,46.642,25.81,66.544-7.69,12.364-22.83,20.728-43.99,24.788-1.61.078-3.2,0.167-4.8,0.262-0.49.006-.95,0.03-1.44,0.033-6.43.049-12.76,0.266-19,.611-0.44,0-.87-0.01-1.3-0.01-6.02,0-11.94.17-17.79,0.469-1.3-.015-2.59-0.024-3.88-0.024q-7.635,0-15.08.372c-1.72-.032-3.44-0.048-5.14-0.048-90.69,0-160.756,45.354-223.021,85.7-27.773,17.994-53.925,34.922-79.964,47.083-9.693,2.513-19.333,4.609-28.97,6.225-5.466.841-10.933,1.55-16.412,2.014q-4.332.369-8.627,0.822l-0.251.011c-5.243.16-10.42,0.435-15.557,0.776q-1.312-.007-2.621-0.006-6.474,0-12.815.19c-5.3-.211-10.5-0.3-15.651-0.307-5.091-.362-10.113-0.639-15.045-0.8q-8.12-.83-15.946-1.3-7.694-.986-15.093-1.624a332.553,332.553,0,0,0-51.02-4.017c-44.748,0-81.285,9.5-117.056,18.813-26.831,6.982-54.574,14.2-85.353,17.3-5.532.554-11.183,0.823-16.879,0.823m151.2-145.28c8.965-1.154,17.764-2.34,26.455-3.519,26.853-3.642,52.215-7.082,77.239-8.515,106.337-6.088,142.309-27.035,192.1-56.031q4.193-2.441,8.533-4.958c40.745-23.59,82.413-44.056,153.336-67.265,30.29-9.911,66.14-16.747,101.72-16.748,40.32,0,80.28,8.777,111.4,31.81,28.72,21.256,39.14,48.38,26.55,69.1-7.53,12.387-22.34,21.1-43.08,25.808,13.85-4.894,24.14-12.165,30.01-21.606,12.92-20.765,2.29-48.528-26.46-69.086-12.25-8.759-46.88-29.036-104.27-29.036-29.87,0-65.9,5.494-108.154,20.968-72.672,26.614-113.308,48.223-145.96,65.588-64.925,34.528-100,53.175-299.415,63.492m-34.406,1.625c9.275-1.77,18.361-3.632,27.328-5.479,32.641-6.72,63.467-13.068,98.109-13.706,112.362-2.071,150.236-25.737,202.655-58.494q5.356-3.346,10.927-6.805c41.836-25.888,85.732-47.811,163.966-70.642a341.89,341.89,0,0,1,93.93-13.659c44.25,0,88.89,9.8,123.14,35.975,29.24,22.351,39.98,50.54,27.35,71.815-7.63,12.849-22.86,22.072-44.32,27.293,18.28-6.67,27.17-16.139,31.42-23.136,13.11-21.572,2.45-49.675-27.17-71.593-15.63-11.564-43.36-26.369-86.76-31.23a256,256,0,0,0-28.52-1.569c-32.18,0-66.11,5.78-101.23,17.272-75.4,24.677-118.558,47.049-153.97,67.55q-4.351,2.518-8.538,4.961c-49.366,28.75-85.036,49.522-190.454,55.559-25.179,1.44-50.618,4.89-77.553,8.545-18.518,2.511-37.435,5.071-57.718,7.232-0.855.038-1.731,0.074-2.592,0.111m121.347-24.665c112.487,0,153.757-27.266,205.67-61.567,4.012-2.651,8.092-5.349,12.283-8.085,43.837-28.618,90.3-52.158,174.625-74.025a337,337,0,0,1,84.62-11.238c60.84,0,108.12,18.554,136.2,40.677,29.83,23.487,40.9,52.8,28.21,74.686-7.98,13.769-24.43,23.757-47.8,29.417,16.49-5.688,28.44-14.2,35.03-25.3,13.13-22.109,2.16-51.259-27.94-74.265-15.96-12.191-44.29-28.047-88.69-34.359a269.878,269.878,0,0,0-38.01-2.641c-30,0-61.37,4.73-93.67,14.157-78.621,22.941-122.745,44.978-164.806,71.009q-5.592,3.459-10.938,6.812c-51.946,32.46-89.479,55.912-200.772,57.962-35.017.646-66.021,7.03-98.845,13.788-13.985,2.881-28.252,5.8-43.1,8.324l-2.154.087c-1.972.079-3.9,0.172-5.851,0.257,8.5-2.2,16.858-4.532,25.106-6.843,33.175-9.289,67.483-18.926,108.881-18.926q1.69,0,3.395.021,4.347,0.052,8.556.05m2.992-5.126c107.675,0,149.709-29.08,202-65.243,4.321-2.989,8.718-6.029,13.235-9.11,47.574-32.466,95.165-56.741,185.279-77.416a342.96,342.96,0,0,1,76.71-8.97c66.17,0,117.65,21.033,147.73,45.4,30.92,25.047,42.08,54.825,29.12,77.707-8.31,14.676-26.01,25.39-51.22,31.531,18.35-6.136,31.56-15.378,38.55-27.446,13.16-22.7,1.86-52.961-28.78-77.1-23.36-18.394-54.69-31.36-90.62-37.5a283.12,283.12,0,0,0-47.68-3.967c-27.66,0-56.35,3.82-85.75,11.447-84.779,21.986-131.523,45.668-175.624,74.462-4.2,2.737-8.283,5.438-12.3,8.091-51.378,33.949-92.171,61-203.35,61q-4.333,0-8.8-.055-1.641-.019-3.267-0.019c-42.02,0-76.655,9.692-110.134,19.07-11.689,3.275-23.583,6.6-35.812,9.508q-5.718.306-11.3,0.66c7.714-2.551,15.427-5.3,23.3-8.117,33.815-12.1,68.7-24.568,115.075-24.568q4.651,0,9.458.171,12.618,0.459,24.181.456m-0.952-4.92c106.064,0,149.191-30.988,202.45-69.245,4.576-3.287,9.231-6.63,14.012-10.016,51.61-36.558,100.217-61.5,195.946-80.808a347.551,347.551,0,0,1,68.75-7.037c71.42,0,127.12,23.664,159.2,50.35,31.59,26.282,43.11,57.263,30.06,80.853-8.68,15.677-27.69,27.233-54.98,33.877,20.44-6.613,34.96-16.7,42.39-29.824,13.42-23.693,2.05-54.377-29.68-80.075-30.56-24.754-82.84-46.135-149.96-46.135a346.948,346.948,0,0,0-77.62,9.074c-90.663,20.8-138.554,45.232-186.442,77.909-4.519,3.086-8.923,6.131-13.25,9.122-51.806,35.83-93.444,64.635-200.069,64.635q-11.433,0-23.888-.449-4.956-.182-9.75-0.179c-46.947,0-82.154,12.594-116.257,24.8-10.718,3.835-21.149,7.557-31.66,10.789l-1.266.092c7.1-2.951,14.218-6.192,21.457-9.493,30.644-13.977,65.052-29.652,112.363-29.652q6.03,0,12.339.349c12.712,0.722,24.638,1.068,35.855,1.068m-2.985-4.813c106.085,0,150.469-32.952,205-73.41,4.807-3.566,9.7-7.194,14.717-10.864,54.591-39.92,105.9-66.494,206.617-84.2a351.1,351.1,0,0,1,60.82-5.408c76.55,0,136.49,26.437,170.56,55.507,32.29,27.55,44.18,59.779,31.02,84.114-7.03,12.992-23.5,28.542-61.56,37.081,23.99-7.082,40.87-18.306,49.03-33.06,13.5-24.385,1.77-56.259-30.59-83.183-32.56-27.081-89.08-51.109-161.47-51.109a351.435,351.435,0,0,0-69.55,7.121c-96.351,19.434-145.285,44.545-197.25,81.354-4.784,3.387-9.443,6.736-14.024,10.026C780.633,432.5,737.9,463.2,632.886,463.2c-11.09,0-22.872-.343-35.437-1.054q-6.538-.375-12.769-0.369c-48.037,0-82.794,15.873-113.759,30-9.385,4.279-18.563,8.454-27.741,12.006q-7.622.623-14.963,1.335c6.832-3.339,13.791-7.092,21.058-11.01,31.376-16.92,66.518-35.889,118.668-35.889q8.05,0,16.656.625c16.346,1.212,31.464,1.788,45.488,1.788m-4.27-4.758c107.065,0,152.869-34.934,208.861-77.657,5.028-3.834,10.14-7.735,15.386-11.681,59.084-44.414,111.213-71.529,217.3-87.606a353.788,353.788,0,0,1,53.03-4.053c81.55,0,145.69,29.349,181.75,60.862,33.5,29.277,45.46,61.973,31.98,87.461-9.62,18.2-31.27,31.455-63.35,39.091,30.34-9.154,44.42-23.163,50.87-35.095,13.58-25.114,1.49-58.223-31.54-86.406-34.55-29.473-95.3-56.287-172.84-56.287a355.174,355.174,0,0,0-61.55,5.475c-101.4,17.83-153.07,44.592-208.046,84.792-5.024,3.674-9.916,7.305-14.73,10.876-31.214,23.158-58.171,43.158-95.135,56.465C707.378,453.065,672.46,458.4,630.059,458.4c-14.18,0-29.191-.6-45.157-1.778q-8.846-.658-17.1-0.647c-52.994,0-88.57,19.206-120.317,36.327-9.218,4.972-17.928,9.656-26.489,13.559q-8.21.87-16.042,1.86c6.934-3.848,14-8.255,21.409-12.892,30.55-19.114,67.832-42.428,125.506-42.428,6.446,0,13.145.292,20.119,0.912,19.552,1.741,37.416,2.563,53.831,2.563m-5.025-4.717c108.673,0,155.911-36.937,213.473-81.947,5.252-4.106,10.586-8.277,16.065-12.5,63.776-49.114,116.545-76.677,227.97-91.007a346.135,346.135,0,0,1,44.2-2.85c87.49,0,157.49,33.69,193.97,66.312,34.22,30.607,46.54,64.582,32.93,90.881-10.09,19.5-33.52,33.742-68.39,41.942,33.89-9.858,49.16-25.161,55.94-37.977,13.88-26.265,1.74-59.8-32.49-89.719-36.52-31.918-101.5-61.658-184.05-61.658a357.7,357.7,0,0,0-53.66,4.1C959.9,292.931,907.4,320.241,847.9,364.97c-5.254,3.949-10.372,7.854-15.4,11.693C777.011,419,731.625,453.628,625.62,453.628c-16.253,0-33.914-.812-53.273-2.536-7.135-.635-13.992-0.932-20.58-0.932-58.676,0-96.432,23.606-127.368,42.961-9.171,5.737-17.8,11.132-26.265,15.49q-8.721,1.192-16.915,2.543c7.262-4.444,14.665-9.731,22.483-15.325,31.06-22.231,68.895-49.3,131.66-49.3a236.544,236.544,0,0,1,24.011,1.256,605.487,605.487,0,0,0,61.419,3.376m-5.658-4.7h0.052c110.7,0,159.442-38.934,218.662-86.251,5.47-4.373,11.033-8.818,16.747-13.312C917.817,294,973.184,264.881,1089.24,252.481a343.952,343.952,0,0,1,36.55-1.941c53.06,0,105.64,12.184,151.11,35.378,50.07,25.542,84.39,60.955,91.81,94.734,8.6,39.179-19.98,68.175-79.06,81.553,38.6-10.575,55.4-27.472,62.58-41.356,14-27.062,1.51-61.867-33.42-93.1-36.92-33.021-107.81-67.124-196.33-67.124a350.12,350.12,0,0,0-44.7,2.88c-112.257,14.439-165.407,42.2-229.642,91.664-5.483,4.223-10.826,8.4-16.077,12.508C775,412.292,728.186,448.9,620.537,448.9a599.6,599.6,0,0,1-60.748-3.335,241.31,241.31,0,0,0-24.583-1.29c-63.83,0-102.154,27.429-133.62,49.945C392,501.08,383.055,507.471,374.3,512.34q-9.2,1.626-17.706,3.45c7.776-5.022,15.8-11.5,24.661-18.685,29.92-24.236,69.678-56.44,138.387-56.44a240,240,0,0,1,27.124,1.583,606.1,606.1,0,0,0,68.367,4.207m-5.956-4.685c113.054,0,163.3-40.926,224.234-90.565,5.7-4.644,11.493-9.363,17.44-14.134,72.278-57.959,128.023-87.38,249.338-97.818,9.56-.822,19.09-1.217,28.54-1.217,127.09,0,240.78,71.478,255.27,138.335,8.93,41.176-21.94,71.915-85.23,85.994,23.69-6.223,42.05-15.173,54.79-26.754,16.52-15.014,22.8-34.144,18.15-55.317-7.55-34.367-42.35-70.336-93.08-96.216-45.97-23.452-99.15-35.778-152.82-35.778a348.317,348.317,0,0,0-37,1.966c-116.95,12.5-172.724,41.829-240.432,95.1-5.717,4.5-11.286,8.948-16.762,13.324C772.9,405.6,724.578,444.2,614.928,444.2a600.12,600.12,0,0,1-67.7-4.164,245.4,245.4,0,0,0-27.736-1.621c-69.886,0-110.162,32.625-140.48,57.183-11.023,8.93-20.707,16.759-30.108,21.92q-10.657,2.507-20.069,5.347c9.516-5.439,19.133-14.18,30.167-24.216,30.193-27.466,70.268-63.915,144.248-63.915a250.628,250.628,0,0,1,30.912,1.983,611.358,611.358,0,0,0,75.015,5.052m-6.277-4.676c115.6,0,167.372-42.918,230.057-94.877,5.933-4.916,11.961-9.914,18.155-14.965,75.962-61.965,134.245-92.916,260.017-101.227q11.07-.73,22.04-0.723c131.82,0,251.19,76.915,266.14,146.778,9.33,43.616-24.58,76.354-93.39,90.959,60.67-15.028,89.98-45.972,81.08-87.022-7.68-35.435-43.34-73.041-95.38-100.592-48.96-25.923-105.61-39.659-162.18-39.659q-14.835,0-29.6,1.265c-122.269,10.519-178.429,40.153-251.222,98.526-5.954,4.775-11.753,9.5-17.455,14.145C770.739,398.923,720.9,439.509,608.9,439.509a605.006,605.006,0,0,1-74.237-5,256.631,256.631,0,0,0-31.56-2.02c-75.287,0-115.858,36.916-146.46,64.749-17.6,16.008-31.5,28.652-46.394,29.239l-0.635.024-0.42.351c-2.333,1.936-4.6,3.839-6.835,5.728-16.778,7.564-28.58,16.331-34.933,26.206a33.85,33.85,0,0,0-4.194,9.272c-29.869,29.718-42.868,51.475-40.375,67.035,2.178,13.6,15.446,21.473,28.847,28.371,11.389,5.864,27.277,7.793,46.761,7.793,16.754,0,36.165-1.427,57.662-3.007,14.006-1.028,28.962-2.129,44.624-2.935-19.643,1.335-38.2,3.308-55.483,5.167-22.689,2.44-42.737,4.6-59.478,4.6-13.437,0-24.741-1.389-33.58-5.135-15.753-6.678-30.192-13.78-33.792-27.169-5.865-21.8,17.852-57.254,74.627-111.547,14.521-.97,27.5-14.152,43.872-30.77,30.356-30.825,70.593-71.679,149.953-71.679a262.256,262.256,0,0,1,34.688,2.4c30.332,4.041,57.233,5.909,81.339,5.909m-6.5-4.666c118.275-.007,171.63-44.913,236.084-99.183,6.168-5.194,12.441-10.475,18.881-15.811,81.364-67.4,139.757-98.5,270.709-104.638q7.8-.364,15.64-0.365c61.13,0,123.74,16.55,178,47.249,54.11,30.609,91.08,71.024,98.9,108.109,9.89,46.833-26.27,80.816-101.89,96.063,66.43-15.543,98.9-48.528,89.57-92.12-15.14-70.755-135.84-148.667-269.19-148.667q-11.085,0-22.25.731c-126.779,8.377-185.495,39.552-262,101.956-6.2,5.056-12.234,10.058-18.17,14.978-62.167,51.53-113.531,94.1-228.069,94.1-23.874,0-50.488-1.85-80.521-5.854a261.336,261.336,0,0,0-34.492-2.377c-81.689-.006-124,42.948-153.144,72.54-16.157,16.4-28.921,29.363-42.281,29.89l-0.7.027-0.424.406c-57.652,55.067-81.681,91.21-75.621,113.745,3.85,14.309,18.875,21.73,35.261,28.674,9.358,3.97,21.162,5.43,35.1,5.43,16.978,0,37.128-2.167,59.905-4.619,17.94-1.929,37.281-3.984,57.761-5.313-23.486,1.923-45.376,5.075-65.679,8.008-23.707,3.426-44.265,6.4-61.151,6.4-9.829,0-18.414-1.006-25.654-3.516-18.982-6.584-35.127-13.193-40.456-27.445-8.392-22.45,12.106-59.647,64.514-117.051,13.14-1,25.006-14.391,39.949-31.249,28.811-32.5,70.606-79.642,156.458-79.642a267.182,267.182,0,0,1,37.508,2.765c32.771,4.641,61.644,6.776,87.445,6.776m-6.671-4.662c121.123,0,176.012-46.893,242.266-103.482,6.411-5.474,12.93-11.043,19.628-16.668,85.269-71.634,146.137-104.235,281.4-108.049,2.94-.083,5.9-0.125,8.86-0.125,62.83,0,130.4,18.51,186.78,51.371,55.49,32.34,93.35,74.466,101.3,112.688,5.89,28.348-.34,79.138-108.27,100.817-1.28.258-2.53,0.513-3.81,0.771,73.28-15.9,109.54-51.157,99.73-97.646-15.56-73.768-141.9-157.247-279.94-157.247q-7.875,0-15.79.367c-131.209,6.145-192.5,38.878-272.783,105.383-6.449,5.342-12.725,10.627-18.9,15.825-63.944,53.838-116.864,98.388-234.11,98.388-25.544,0-54.131-2.113-86.562-6.706a273.192,273.192,0,0,0-38.305-2.823c-87.3,0-129.585,47.749-158.776,80.675-14.765,16.656-26.426,29.814-38.339,30.283l-0.757.028-0.424.464c-53.236,58.237-74,96.16-65.328,119.345,5.664,15.148,23.14,22.3,42.089,28.873,7.684,2.665,16.69,3.727,26.944,3.727,17.195,0,37.9-2.991,61.736-6.437,22.485-3.25,46.921-6.773,73.294-8.574-29.283,2.478-56.1,7.372-79.227,11.6-24.639,4.509-45.651,8.353-62.8,8.353a73.783,73.783,0,0,1-19.875-2.361c-21.694-6.085-40.239-12.36-47.479-27.592-10.867-22.872,7.038-63,54.746-122.691,11.815-1.021,22.087-13.855,36.181-31.463C321.968,468.943,363.623,416.9,455.1,416.9a279.492,279.492,0,0,1,41.265,3.219c35.12,5.241,65.944,7.645,93.372,7.645m-6.823-4.66c124.055,0,180.514-48.864,248.588-107.77,6.657-5.76,13.428-11.619,20.387-17.538,89.25-75.94,152.6-110.054,292.093-111.462q1.59-.017,3.18-0.017c64.74,0,135.4,20.187,194.47,55.58,56.89,34.088,95.66,77.947,103.71,117.323,10.22,49.922-28.49,87.017-108.99,104.455q-23.685,5.13-46.07,9.961c-62.39,13.476-117.78,25.442-167.63,36.97l-1.05.03c58.68-14.395,124.79-28.875,200.9-44.161,81.67-16.406,120.91-53.1,110.47-103.314-8.06-38.768-46.35-81.425-102.42-114.106-56.91-33.164-125.21-51.851-188.66-51.852q-4.5,0-8.98.126c-136.377,3.846-197.694,36.674-283.563,108.807-6.7,5.632-13.226,11.2-19.643,16.684-65.739,56.146-120.245,102.672-240.3,102.672-27.164,0-57.664-2.379-92.432-7.567a285.394,285.394,0,0,0-42.1-3.283c-92.968,0-135.141,52.694-164.267,89.08-13.418,16.765-24.016,30-34.56,30.419l-0.812.031-0.416.518c-49.158,61.4-66.759,101.14-55.391,125.062,7.67,16.141,26.847,22.659,49.263,28.945a77.653,77.653,0,0,0,20.941,2.506c17.532,0,38.727-3.877,63.544-8.419,23.909-4.372,51.772-9.464,82.194-11.825-32.289,3.033-61.59,9.506-86.743,15.084-25.581,5.67-47.069,10.436-64.652,10.436a70.914,70.914,0,0,1-15.423-1.531c-24.44-5.444-45.431-11.278-54.787-27.606-13.562-23.669,1.244-65.7,45.262-128.474,10.583-1.08,19.852-13.881,32.554-31.417C298.527,470.244,341.429,411,439.816,411a284.791,284.791,0,0,1,43.952,3.59c37.408,5.844,70.137,8.519,99.144,8.519M576,418.454c127.056,0,185.088-50.839,254.989-112.052,6.908-6.05,13.934-12.2,21.159-18.423,93.623-80.595,156.226-114.9,295.916-114.9q3.4,0,6.87.028c65.88,0.5,138.66,22.311,199.69,59.845,58.3,35.854,97.97,81.465,106.13,122.009,10.23,50.909-28.75,89.293-109.76,108.078-65.06,15.087-123.33,27.436-174.74,38.33q-21.765,4.609-42.15,8.96h-0.02c47.08-10.782,99.01-22.006,157.05-34.541q22.41-4.839,46.07-9.963c110.83-24.007,117.21-77.3,111.14-106.934-8.16-39.912-47.34-84.3-104.79-118.725-59.65-35.742-131.01-56.079-196.55-56.081-1.03,0-2.04,0-3.06.015-140.66,1.419-204.48,35.771-294.347,112.232-6.965,5.926-13.739,11.79-20.4,17.555-67.549,58.451-123.626,106.947-246.611,106.947-28.746,0-61.124-2.647-98.185-8.434a290.489,290.489,0,0,0-44.838-3.665c-99.934-.007-143.367,59.984-170.655,97.666-12.113,16.724-21.682,29.933-30.928,30.3l-0.868.033-0.4.568C191.954,601.005,177,643.828,190.967,668.215c10.672,18.626,36.194,24.309,56.7,28.877a74.93,74.93,0,0,0,16.293,1.625c18.036,0,39.735-4.809,65.532-10.531,25.84-5.728,56.06-12.422,89.359-15.3-34.8,3.585-66.105,11.731-92.911,18.708-25.663,6.68-48.452,12.62-67,12.62a68.419,68.419,0,0,1-11.61-.918c-27.175-4.675-50.626-9.972-62.315-27.484-16.358-24.508-4.584-68.478,35.987-134.4,9.394-1.108,17.3-13.159,29.072-31.1,26.667-40.653,69.077-105.328,173.339-105.328a297.5,297.5,0,0,1,47.753,4.079c39.674,6.451,74.259,9.4,104.823,9.4m-7.06-4.655h0.043c130.087-.007,189.746-52.811,261.472-116.317,7.163-6.344,14.454-12.8,21.948-19.319,94.727-82.426,158.661-118.546,293.291-118.546q9.84,0,20.19.255c147.55,3.665,293.94,108,310.3,190.841,10.25,51.91-29.01,91.574-110.54,111.681-80.16,19.771-149.17,33.644-210.4,45.758,7.17-1.524,14.43-3.064,21.84-4.635,51.43-10.9,109.72-23.249,174.83-38.348,82.6-19.152,122.32-58.409,111.84-110.538-8.26-41.072-48.33-87.2-107.18-123.4-61.56-37.859-135.04-59.86-201.61-60.365q-3.21-.021-6.38-0.022c-69.68,0-121.83,8.678-168.142,27.981-46.218,19.266-85.636,48.992-130.6,87.7-7.229,6.225-14.261,12.382-21.174,18.437-69.374,60.752-127.014,111.218-253,111.218-30.295,0-64.523-2.915-103.838-9.307a303.65,303.65,0,0,0-48.7-4.161c-105.873-.006-148.782,65.464-175.78,106.622-10.849,16.541-19.421,29.6-27.443,29.92l-0.918.035-0.382.619c-41.262,66.9-53.14,111.675-36.307,136.9,13.276,19.888,42.8,24.969,64.35,28.677a72.4,72.4,0,0,0,12.273.971c19.076,0,42.114-6,68.033-12.743,27.7-7.208,60.234-15.644,96.394-18.965-37.375,4.059-70.765,13.982-99.227,22.472-26.641,7.948-50.131,14.954-69.418,14.954a67.833,67.833,0,0,1-8.57-.515c-28.782-3.663-55.795-8.5-70.008-27.24-19.251-25.375-10.464-71.324,26.87-140.461,8.289-1.187,15.3-12.994,25.718-30.523,24.641-41.479,67.954-114.359,179.53-114.359a302.91,302.91,0,0,1,50.334,4.454c41.9,7.06,78.265,10.276,110.358,10.276m-7.071-4.65h0.024c133.2-.006,194.45-54.772,268.02-120.58,7.424-6.64,14.978-13.4,22.745-20.223,50.324-44.225,91.18-75.68,139.286-95.821,43.3-18.126,91.41-26.576,153.06-26.576,10.23,0,20.82.232,31.84,0.692,66.54,2.78,140.85,27.68,203.87,68.318,61.16,39.438,102.63,88.608,110.94,131.527,7.24,37.439-6.19,87.825-111.36,115.266-76.91,20.068-143.4,33.336-203.06,44.35,55.92-11.146,118.24-24.04,189.37-41.584,83.09-20.491,123.07-61.022,112.58-114.129-18.17-92.075-176.24-189.352-313.2-192.752q-10.545-.264-20.56-0.264c-135.6,0-200.016,36.4-295.338,119.343-7.5,6.526-14.794,12.984-21.963,19.334C756.911,359.1,697.7,411.524,568.642,411.524c-31.812,0-67.862-3.185-109.388-10.18a309.045,309.045,0,0,0-51.308-4.543c-113.3,0-157.069,73.744-182.012,115.729-9.628,16.205-17.233,29.006-24.1,29.277l-0.968.037-0.359.664c-37.975,70.145-46.818,116.921-27.033,143,14.868,19.6,42.607,24.6,72.141,28.354a72.157,72.157,0,0,0,9.074.546c19.889,0,43.641-7.084,70.568-15.117,29.626-8.836,64.606-19.248,103.805-22.867-40.227,4.38-75.856,16.289-106.105,26.432-27.678,9.282-51.91,17.407-72.123,17.407q-3.01,0-5.9-.247c-30.083-2.629-60.868-6.866-77.816-26.88-22.236-26.257-16.4-74.23,17.858-146.648,7.222-1.224,13.081-12.128,22.508-29.667,24.142-44.926,66.556-123.8,184.308-123.8a316.257,316.257,0,0,1,54.189,4.972c44.117,7.669,82.279,11.156,115.882,11.156m-7.129-4.652c136.4,0,199.19-56.716,274.621-124.829,7.685-6.94,15.506-14,23.555-21.139,94.438-83.761,158.338-126.441,291.918-126.444,13.57,0,27.85.44,42.96,1.322,66.91,3.908,142.01,30.343,206.02,72.527,63.54,41.87,104.85,91.569,113.34,136.352,7.23,38.156-6.37,89.744-112.21,118.825-74.26,20.4-138.85,33.307-197.09,43.45,54.56-10.311,114.86-22.8,183.45-40.7,83.57-21.805,123.82-63.6,113.35-117.693-18.22-94.128-178.53-195.954-317.64-201.763q-16.635-.7-32.07-0.7c-62.17,0-110.73,8.547-154.5,26.87-48.5,20.307-89.57,51.913-140.111,96.328-7.776,6.832-15.333,13.594-22.762,20.238-73.053,65.344-133.849,119.724-266.022,119.724-33.311,0-71.149-3.453-114.867-11.055a322.4,322.4,0,0,0-55.188-5.063c-119.495,0-162.4,79.783-186.827,125.243-8.451,15.72-15.125,28.14-20.895,28.368l-1.016.039-0.336.708c-34.847,73.455-40.692,122.26-17.87,149.212,17.657,20.851,49.219,25.222,80.034,27.912q3.086,0.272,6.283.267c20.851,0,45.374-8.224,73.353-17.609,31-10.4,67.676-22.691,109.086-26.671-42.272,4.773-79.473,18.566-110.986,30.27-28.732,10.672-53.768,19.975-75,19.975q-1.8,0-3.573-.091c-32.469-1.672-65.832-5.09-85.7-26.407-25.309-27.15-22.393-77.188,8.914-152.956,6.235-1.322,11.312-11.786,19.429-28.521,12.754-26.3,32.029-66.041,69.373-95.289,32.382-25.36,72.843-38.1,120.748-38.1a323.592,323.592,0,0,1,56.881,5.358c46.284,8.281,86.262,12.037,121.345,12.037m-7.205-4.647c139.592,0,203.978-58.669,281.261-129.071,7.951-7.243,16.045-14.616,24.375-22.068,96.247-86.087,161.773-130.618,293.113-130.624,16.41,0,33.81.693,52.46,2.088,67.32,5.033,143.21,32.995,208.22,76.718s107.2,95.2,115.73,141.218c7.2,38.877-6.58,91.664-113.1,122.36-70.2,20.229-133.43,33.03-189.48,42.437,52.64-9.579,110.53-21.741,175.89-39.7,107.73-29.6,121.54-82.266,114.15-121.233-8.58-45.3-50.25-95.492-114.32-137.712-64.5-42.5-140.24-69.143-207.8-73.088q-22.89-1.335-43.39-1.334c-134.7,0-199.008,42.953-294.063,127.256-8.052,7.142-15.879,14.21-23.569,21.154-74.9,67.633-137.3,123.966-272.617,123.966-34.793,0-74.393-3.721-120.283-11.932a328.273,328.273,0,0,0-57.757-5.451c-127.387,0-170.639,89.163-192.82,134.9-7.026,14.484-13.092,26.993-17.834,27.181l-1.06.041-0.311.748c-31.847,76.829-34.722,127.7-8.781,155.529,20.634,22.136,56.239,25.735,87.99,27.373,1.247,0.063,2.5.094,3.77,0.094,21.965,0,47.3-9.41,76.378-20.212,32.046-11.9,70-26,113.1-30.394-43.856,5.212-82.229,20.8-114.705,34.006-29.86,12.137-55.786,22.651-78.158,22.651-0.455,0-.907,0-1.359-0.013-33.266-.64-70.677-3.219-93.636-25.845-28.453-28.042-28.453-80.173.008-159.352,5.032-1.259,8.894-9.65,16.5-27.088,21.2-48.638,62.534-143.431,194.638-143.431a336.388,336.388,0,0,1,60.73,5.907c48.445,8.893,90.178,12.92,126.732,12.92m-7.242-4.645c142.813,0,208.791-60.616,287.931-133.309,8.218-7.548,16.584-15.232,25.2-23,98.221-88.554,165.472-134.931,295.192-134.932,18.93,0,39.2.988,61.09,2.977,67.75,6.16,144.46,35.648,210.46,80.9,66.51,45.606,109.55,98.865,118.1,146.124,7.16,39.6-6.81,93.575-114.02,125.865-69.58,20.957-132.36,33.71-188.33,42.658a1655.971,1655.971,0,0,0,174.78-39.933c108.37-31.228,122.35-85.074,115-124.747-8.62-46.527-51.15-98.492-116.69-142.569-65.47-44.04-142-72.211-209.95-77.292-18.82-1.407-36.42-2.106-52.97-2.107-132.42,0-198.39,44.8-295.254,131.448-8.337,7.456-16.436,14.834-24.394,22.083C749.681,339.29,685.676,397.566,547.167,397.566c-36.256,0-77.6-3.989-125.634-12.809a338.337,338.337,0,0,0-60.96-5.9c-51.458,0-94.546,14.165-128.578,42.367-38.746,32.1-57.224,74.5-69.454,102.548-5.977,13.712-11.137,25.554-14.912,25.7l-1.1.044-0.284.783c-28.954,80.261-28.871,133.232.255,161.938,23.77,23.426,62.012,26.085,95.989,26.74,0.477,0.01.954,0.013,1.437,0.013,23.21,0,49.4-10.644,79.621-22.927,32.968-13.4,72.071-29.266,116.675-34.069-45.272,5.652-84.7,23-118.047,37.684-30.705,13.519-57.223,25.195-80.786,25.429q-2.922.029-5.846,0.03c-36.144,0-72.082-3.6-95.753-25.228-31.229-28.533-34.214-84.327-8.876-165.852,4.188-1.3,7.282-8.833,13.71-25.335,18.812-48.3,59.817-153.627,200.287-153.627a342.9,342.9,0,0,1,63.3,6.3c50.586,9.509,94.068,13.809,132.079,13.809m-7.32-4.645H533c146.029-.007,213.647-62.57,294.638-137.533,8.49-7.858,17.135-15.858,26.037-23.946,60.7-55.131,106.1-91.4,158.507-113.651,40.86-17.349,85.31-25.733,139.01-25.733a654.548,654.548,0,0,1,69.46,4.008c67.23,7.185,146.76,38.989,212.76,85.081,68,47.492,111.91,102.555,120.46,151.064,10.18,57.815-29.57,102.537-114.97,129.339a1247.4,1247.4,0,0,1-184.57,42.553,1408.848,1408.848,0,0,0,171.06-39.84c109-32.829,123.18-87.853,115.88-128.232-8.64-47.765-52.03-101.514-119.04-147.467-66.46-45.568-143.79-75.267-212.16-81.483-22.12-2.01-42.61-3.01-61.74-3.01-130.78,0-198.433,46.667-297.258,135.769-8.621,7.772-16.993,15.463-25.217,23.017-78.607,72.2-144.179,132.425-285.921,132.425-37.712,0-80.8-4.26-130.978-13.693a349.1,349.1,0,0,0-64.375-6.41c-142.4,0-183.856,106.457-202.876,155.285-4.561,11.706-9.277,23.809-12.145,23.922l-1.141.043-0.258.823c-26.144,83.75-23.112,138.84,9.264,168.422,24.42,22.309,61.135,26.061,97.933,26.061,2.021,0,4.048-.01,6.069-0.03,24.378-.243,51.222-12.061,82.3-25.745,35.378-15.574,74.351-32.716,119.479-37.78-45.7,5.922-84.969,24.5-120.683,41.39-31.051,14.688-57.868,27.373-82.309,28.269q-8.34.3-15.855,0.3c-56.563,0-79.173-12.374-93.721-24.788-34.461-29.408-40.432-87.415-17.752-172.43,3.34-1.306,5.726-7.745,11.072-23.241,12.734-36.9,39.231-113.683,116.63-147.387,25.783-11.227,55.325-16.85,88.289-16.85a354.807,354.807,0,0,1,66.737,6.784c52.722,10.125,97.893,14.694,137.354,14.694m-7.309-4.646h0.015c149.312,0,218.517-64.507,301.374-141.753,8.763-8.168,17.686-16.487,26.883-24.9,54.437-49.788,104.3-93.05,163.368-118.229,40.59-17.3,84.54-25.707,137.05-25.707a636.385,636.385,0,0,1,77.26,5.141c67.73,8.3,148.14,41.672,215.1,89.256,69.51,49.393,114.26,106.267,122.8,156.039,10.08,58.842-30.01,104.759-115.96,132.783a1117.819,1117.819,0,0,1-181.99,42.707,1238.033,1238.033,0,0,0,168.52-40.009c109.65-34.407,124.03-90.6,116.8-131.684C1548.24,280.55,1504,225,1435.5,177.161c-66.44-46.4-146.59-78.423-214.42-85.668a659.05,659.05,0,0,0-69.93-4.034c-54.22,0-99.14,8.477-140.49,26.032-52.812,22.422-98.415,58.845-159.343,114.182-8.908,8.091-17.558,16.1-26.055,23.961C744.792,326.112,677.63,388.271,532.63,388.271c-39.147,0-83.963-4.53-136.251-14.571a359.07,359.07,0,0,0-67.523-6.859c-33.506,0-63.548,5.727-89.808,17.164-78.49,34.176-105.194,111.571-118.029,148.764-3.594,10.417-7.311,21.188-9.557,21.81l-1.15.047-0.229.854C87.01,641.555,93.156,700.424,128.342,730.451c14.995,12.8,38.229,25.565,95.983,25.565q7.611,0,16.039-.3c25.252-.924,52.383-13.758,83.8-28.618,36.655-17.337,77.1-36.45,124.257-41.606-47.677,6.048-88.375,26.562-125.326,45.208-31.485,15.886-58.675,29.6-84.046,31.153-8.821.538-17.889,0.916-27,.916-32.658,0-65.9-4.858-90.548-24.624C83.753,707.865,74.791,647.615,94.86,559.055c2.6-1.278,4.348-6.687,8.6-20.784C115.3,499.065,139.926,417.489,221.311,381.02c26.683-11.958,57.4-17.95,91.781-17.95a364.8,364.8,0,0,1,69.934,7.265c54.841,10.741,101.738,15.579,142.634,15.579m-7.363-4.642h0.029c152.592-.007,223.406-66.447,308.128-145.967,8.967-8.419,18.243-17.124,27.729-25.856C953.488,118.038,1023.23,60.9,1158.07,60.9c25.61,0,53.54,2.058,84.49,6.333,68.29,9.438,149.6,44.365,217.51,93.433,71.01,51.3,116.61,110,125.11,161.042,9.97,59.871-30.48,106.967-116.98,136.2a1020.383,1020.383,0,0,1-179.89,43,1113.134,1113.134,0,0,0,166.46-40.313c110.3-35.962,124.91-93.322,117.75-135.109-8.62-50.269-53.71-107.628-123.7-157.37-67.38-47.885-148.4-81.476-216.71-89.851a640.539,640.539,0,0,0-77.79-5.177c-53.04,0-97.46,8.5-138.54,26.012C956.265,124.472,906.2,167.9,851.567,217.861c-9.2,8.414-18.129,16.737-26.9,24.912C742.34,319.526,673.576,383.627,525.316,383.627c-40.584,0-87.1-4.8-141.514-15.456a369.05,369.05,0,0,0-70.726-7.341c-34.94,0-66.165,6.1-93.342,18.278C137.248,416.071,112.428,498.279,100.5,537.783c-2.84,9.4-5.519,18.279-7.249,19.357l-1.046.042-0.2.882c-20.413,89.617-11.241,150.709,27.258,181.59C144.654,760.014,178.657,765,211.991,765c9.217,0,18.388-.382,27.306-0.925,26.171-1.594,53.669-15.471,85.513-31.536,37.451-18.9,78.772-39.733,127.189-45.205-48.885,6.39-90.445,28.609-128.158,48.791-31.989,17.115-59.612,31.9-85.955,34.09-10.788.9-22.334,1.583-34.133,1.583-31.945,0-65.743-5.024-91.385-24.458-41.083-31.137-53.041-93.648-35.541-185.815,1.926-1.243,3.159-5.726,6.318-17.913,9.925-38.29,33.166-127.958,118.785-167.444,27.61-12.734,59.529-19.114,95.391-19.114q34.211,0,73.113,7.747c56.952,11.358,105.543,16.469,147.864,16.469m-7.5-4.656h0.021c155.532-.007,227.848-68.117,314.337-149.59,9.465-8.918,19.25-18.138,29.282-27.394C955.692,105.513,1027.12,46.326,1161.85,46.326c27.63,0,57.91,2.487,91.67,7.673,68.87,10.582,151.1,47.072,219.96,97.614,72.51,53.227,118.95,113.76,127.41,166.078,9.84,60.888-30.98,109.151-118.03,139.575a944.5,944.5,0,0,1-178.32,43.425,1018.533,1018.533,0,0,0,164.92-40.751c87.83-29.676,128.88-77.57,118.73-138.5-8.58-51.534-54.51-110.716-126-162.368-68.32-49.366-150.22-84.518-219.07-94.033-30.85-4.264-59.05-6.423-85.22-6.423-52.05,0-96.07,8.538-136.97,26.05-60.64,25.961-112.467,71.24-169.117,123.387-9.5,8.74-18.772,17.449-27.745,25.871-84.2,79.031-154.551,145.058-306.115,145.058-42,0-90.23-5.069-146.726-16.336q-39.265-7.833-73.932-7.829c-36.422,0-68.87,6.493-96.975,19.457-86.742,40-110.157,130.344-120.156,168.92-2.021,7.8-3.933,15.183-5.18,16.51l-0.881.034-0.175.915C56.138,653.843,68.339,717.18,110.193,748.9c26.37,19.986,60.922,25.138,93.5,25.138,11.94,0,23.619-.692,34.528-1.6,27.14-2.26,55.066-17.2,87.4-34.5,37.415-20.023,78.65-42.048,126.927-48.374C403.816,696.8,362.373,720.2,324.7,741.49c-31.18,17.619-60.631,34.26-87.972,37.1A402.745,402.745,0,0,1,195.278,781c-31.942,0-65.4-5.264-92.02-24.411C58.8,724.6,43.84,659.812,58.788,564.013c1.251-1.071,2.06-4.458,4.247-14.6,7.975-36.964,29.155-135.15,119.353-178,28.571-13.575,61.748-20.375,99.156-20.375q35.639,0,76.3,8.235c59,11.967,109.253,17.344,152.954,17.344m-7.362-4.638h0.027C662.43,371.967,736.389,301.844,824.776,218c9.67-9.173,19.669-18.657,29.918-28.179,103.737-96.862,177.166-158.1,311.766-158.1,29.44,0,61.77,2.925,98.02,9.046,69.51,11.739,152.67,49.794,222.46,101.8,74.03,55.158,121.3,117.533,129.69,171.134,9.68,61.9-31.51,111.325-119.12,142.926A883.655,883.655,0,0,1,1320.2,500.6a944.351,944.351,0,0,0,163.95-41.306c88.35-30.875,129.76-79.93,119.75-141.863-8.53-52.809-55.29-113.822-128.28-167.4-69.26-50.835-152.05-87.552-221.48-98.217-33.6-5.162-64.16-7.774-92.42-7.774-51.22,0-94.93,8.573-135.72,26.089C963.932,96.78,910.506,143.917,852.064,198.239c-10.037,9.261-19.828,18.487-29.3,27.406-85.956,80.976-157.843,148.677-312.326,148.677-43.379,0-93.24-5.332-151.791-17.206q-41.024-8.323-77.124-8.32c-37.985,0-71.705,6.921-100.78,20.735C89.4,412.922,68.069,511.825,60.039,549.06c-1.36,6.3-2.549,11.809-3.361,13.207L56,562.293l-0.147.938c-15.2,96.811.035,162.407,45.285,194.96,27.327,19.663,61.511,25.057,94.072,25.057a407.7,407.7,0,0,0,41.937-2.443c28.136-2.92,57.893-19.735,89.4-37.541,39.344-22.233,82.844-46.793,134.286-52.485-51.875,6.686-95.545,32.575-135.109,56.048-31.758,18.847-61.758,36.649-90.148,40.133a389.5,389.5,0,0,1-47.337,3.238c-31.814,0-66.309-5.279-94.066-24.314-47.881-32.837-65.856-99.928-53.421-199.425,0.773-.979,1.218-3.612,2.424-10.715C49.141,520.57,67.3,413.534,162.6,366.8c29.581-14.508,64.112-21.778,103.183-21.778q37.062,0,79.474,8.723c61.105,12.586,113.054,18.237,158.181,18.237m-7.643-4.781h0.027c162.814-.007,238.4-72.146,328.737-158.384,9.821-9.376,19.98-19.074,30.385-28.809C961.235,80.345,1036.65,17.036,1171.34,17.036c31.16,0,65.48,3.386,104.1,10.493,70.18,12.916,154.31,52.539,225.02,105.991,75.54,57.1,123.63,121.327,131.93,176.217,9.52,62.91-32.05,113.48-120.22,146.246a834.208,834.208,0,0,1-176.44,44.571,885.132,885.132,0,0,0,163.11-41.921c88.88-32.054,130.65-82.262,120.8-145.191-8.46-54.089-56.04-116.946-130.54-172.454-70.18-52.292-153.9-90.575-223.94-102.4-36.64-6.187-69.33-9.144-99.06-9.144-135.63,0-209.467,61.584-313.787,158.989-10.254,9.529-20.259,19.019-29.931,28.2-57.642,54.679-107.422,101.9-177.934,129.2-41.28,15.982-87.559,23.954-140.93,23.954-46.6,0-98.6-6.072-157.445-18.194q-42.779-8.811-80.312-8.808c-39.668,0-74.743,7.393-104.844,22.155C64.469,412.238,46.172,520.042,40.161,555.468c-0.726,4.28-2.38,10.344-2.38,10.344C25.148,666.275,43.425,734.141,92.1,767.522c28.459,19.517,63.671,24.917,96.084,24.917a394.225,394.225,0,0,0,47.881-3.271c29.177-3.582,59.476-21.561,91.553-40.6,40-23.736,84.23-49.959,136.729-55.933-52.915,7-97.3,34.525-137.511,59.482-32.374,20.1-62.951,39.074-92.422,43.21a388.192,388.192,0,0,1-53.812,4.219c-32.118,0-66.694-5.447-95.5-24.34-51.355-33.684-72.345-103.131-62.394-206.4a34.586,34.586,0,0,0,.925-6.026C38.016,439.672,96.19,385.79,142.46,362.267c30.6-15.561,66.518-23.357,107.32-23.357q38.581,0,82.889,9.3C395.742,361.317,449.315,367.2,495.793,367.2m-7.117-4.492h0.02c165.914,0,243.108-74.16,335.316-162.76,10.082-9.685,20.505-19.7,31.185-29.755,66.947-63.017,123.31-113.468,188.183-141.742,40.42-17.621,83.25-26.322,132.3-26.322,33.59,0,70.08,4.079,110.71,12.167C1357.31,28.4,1442.41,69.6,1514.03,124.486c77.05,59.047,125.95,125.136,134.16,181.32,9.34,63.912-32.63,115.619-121.37,149.534a792.853,792.853,0,0,1-176.21,45.282,836.456,836.456,0,0,0,162.92-42.642c89.41-33.222,131.55-84.569,121.88-148.49-8.38-55.376-56.78-120.085-132.78-177.532-71.09-53.738-155.75-93.589-226.46-106.6-39.02-7.18-73.72-10.6-105.18-10.6-135.72-.006-211.552,63.655-318.431,163.868-10.417,9.743-20.579,19.444-30.406,28.825C763.12,263.8,712.135,312.476,639.845,340.525c-42.118,16.339-89.366,24.493-143.867,24.493-48.031,0-101.692-6.328-162.483-18.962q-44.675-9.388-83.736-9.385c-41.414,0-77.888,7.926-109.023,23.752C55.933,403.537,28.607,494.159,20.615,562.591c-0.238,2.032-.807,4.815-0.807,4.815l-0.1.985C9.626,672.536,30.951,742.683,83.089,776.882c29.493,19.344,64.759,24.911,97.462,24.911a392.922,392.922,0,0,0,54.436-4.263c30.249-4.246,61.121-23.408,93.809-43.7,38.7-24.021,81.3-50.455,131.494-58.316-50.243,8.8-92.786,36.316-132.244,61.849-33.017,21.368-64.2,41.549-94.774,46.338a386.245,386.245,0,0,1-59.524,5.053c-39.754,0-71.995-8.021-97.683-24.189C21.192,750.035-2.827,678.209,4.67,571.081l0-.051c0.011-1.489,2.546-149.554,114.209-211.169,32.473-17.921,71.08-26.9,115.382-26.9q39.878,0,85.814,9.714c65.285,13.831,120.642,20.027,168.6,20.027M1176.13,0C1040.16,0,962.294,65.748,852.808,168.81c-10.689,10.062-21.118,20.082-31.2,29.773-60.421,58.054-112.6,108.191-186.667,136.988-42.813,16.645-90.8,24.953-146.107,24.953-49.573,0-105.028-6.673-167.915-20q-46.314-9.81-86.683-9.807c-44.939,0-84.153,9.13-117.17,27.349C4.709,420.063,1.677,568.19,1.638,570.989c-7.545,107.847,16.833,180.275,72.456,215.28C100.35,802.793,133.231,811,173.693,811h0.017a390.376,390.376,0,0,0,60.19-5.105c31.349-4.913,62.824-25.281,96.149-46.846,47.274-30.594,99.035-64.092,163.173-64.092,26.287,0,54.642,5.623,85.637,19.376,40.547,17.99,82.383,27.082,123.553,27.082a273.4,273.4,0,0,0,65.565-7.924c75.313-18.572,141.945-69.256,178.241-135.573,12.126-22.154,26.33-38.519,42.561-50.675q6.073-1.777,12.281-3.533,7.77-2.088,15.77-4.139,13.545-3.3,27.73-6.454,11-2.271,22.41-4.485,10.665-1.89,21.76-3.744,10.14-1.523,20.63-3.036,9.885-1.254,20.12-2.521c2.52-.267,5.03-0.534,7.58-0.8q5.865-.622,11.87-1.26,9.3-.817,18.95-1.692,8.94-.642,18.17-1.353,8.88-.518,18.02-1.113,8.58-.4,17.4-0.88,8.46-.3,17.14-0.7c81.42-2.118,177.46-11.335,289.61-54.2,89.94-34.376,132.47-86.855,122.99-151.763-8.28-56.669-57.48-123.235-134.99-182.631-71.99-55.168-157.61-96.59-229.04-110.8C1245.86,3.908,1209.26,0,1176.13,0"/>
</svg>
